<svg height="1.65em" viewBox="0 0 2769 513" fill="none" xmlns="http://www.w3.org/2000/svg">
<path d="M292.9 18C287.6 7 276.4 0 264.1 0C251.8 0 240.7 7 235.3 18L171 150.3L27.4 171.5C15.4 173.3 5.4 181.7 1.7 193.2C-2 204.7 0.999997 217.4 9.6 225.9L113.8 329L89.2 474.7C87.2 486.7 92.2 498.9 102.1 506C112 513.1 125.1 514 135.9 508.3L264.2 439.8L392.5 508.3C403.3 514 416.4 513.2 426.3 506C436.2 498.8 441.2 486.7 439.2 474.7L414.5 329L518.7 225.9C527.3 217.4 530.4 204.7 526.6 193.2C522.8 181.7 512.9 173.3 500.9 171.5L357.2 150.3L292.9 18Z" fill="#E33332"/>
<path d="M852.756 18C847.456 7 836.256 0 823.956 0C811.656 0 800.556 7 795.156 18L730.856 150.3L587.256 171.5C575.256 173.3 565.256 181.7 561.556 193.2C557.856 204.7 560.856 217.4 569.456 225.9L673.656 329L649.056 474.7C647.056 486.7 652.056 498.9 661.956 506C671.856 513.1 684.956 514 695.756 508.3L824.056 439.8L952.356 508.3C963.156 514 976.256 513.2 986.156 506C996.056 498.8 1001.06 486.7 999.056 474.7L974.356 329L1078.56 225.9C1087.16 217.4 1090.26 204.7 1086.46 193.2C1082.66 181.7 1072.76 173.3 1060.76 171.5L917.056 150.3L852.756 18Z" fill="#E33332"/>
<path d="M1412.76 18C1407.46 7 1396.26 0 1383.96 0C1371.66 0 1360.56 7 1355.16 18L1290.86 150.3L1147.26 171.5C1135.26 173.3 1125.26 181.7 1121.56 193.2C1117.86 204.7 1120.86 217.4 1129.46 225.9L1233.66 329L1209.06 474.7C1207.06 486.7 1212.06 498.9 1221.96 506C1231.86 513.1 1244.96 514 1255.76 508.3L1384.06 439.8L1512.36 508.3C1523.16 514 1536.26 513.2 1546.16 506C1556.06 498.8 1561.06 486.7 1559.06 474.7L1534.36 329L1638.56 225.9C1647.16 217.4 1650.26 204.7 1646.46 193.2C1642.66 181.7 1632.76 173.3 1620.76 171.5L1477.06 150.3L1412.76 18Z" fill="#E33332"/>
<path d="M1972.76 18C1967.46 7 1956.26 0 1943.96 0C1931.66 0 1920.56 7 1915.16 18L1850.86 150.3L1707.26 171.5C1695.26 173.3 1685.26 181.7 1681.56 193.2C1677.86 204.7 1680.86 217.4 1689.46 225.9L1793.66 329L1769.06 474.7C1767.06 486.7 1772.06 498.9 1781.96 506C1791.86 513.1 1804.96 514 1815.76 508.3L1944.06 439.8L2072.36 508.3C2083.16 514 2096.26 513.2 2106.16 506C2116.06 498.8 2121.06 486.7 2119.06 474.7L2094.36 329L2198.56 225.9C2207.16 217.4 2210.26 204.7 2206.46 193.2C2202.66 181.7 2192.76 173.3 2180.76 171.5L2037.06 150.3L1972.76 18Z" fill="#E33332"/>
<path d="M2532.76 18C2527.46 7 2516.26 0 2503.96 0C2491.66 0 2480.56 7 2475.16 18L2410.86 150.3L2267.26 171.5C2255.26 173.3 2245.26 181.7 2241.56 193.2C2237.86 204.7 2240.86 217.4 2249.46 225.9L2353.66 329L2329.06 474.7C2327.06 486.7 2332.06 498.9 2341.96 506C2351.86 513.1 2364.96 514 2375.76 508.3L2504.06 439.8L2632.36 508.3C2643.16 514 2656.26 513.2 2666.16 506C2676.06 498.8 2681.06 486.7 2679.06 474.7L2654.36 329L2758.56 225.9C2767.16 217.4 2770.26 204.7 2766.46 193.2C2762.66 181.7 2752.76 173.3 2740.76 171.5L2597.06 150.3L2532.76 18Z" fill="#E33332"/>
</svg>
